<svg xmlns="http://www.w3.org/2000/svg" viewBox="0 0 900 760" role="img" aria-label="Pastel map of Korea with Jeju Island marked">
  <defs>
    <radialGradient id="waterGlow" cx="50%" cy="45%" r="70%">
      <stop offset="0%" stop-color="#f7fbfa"/>
      <stop offset="60%" stop-color="#dfeef0"/>
      <stop offset="100%" stop-color="#cfe3e7"/>
    </radialGradient>
    <filter id="softShadow" x="-20%" y="-20%" width="140%" height="140%">
      <feDropShadow dx="0" dy="12" stdDeviation="18" flood-color="#5f6b5f" flood-opacity="0.14"/>
    </filter>
  </defs>
  <rect width="900" height="760" rx="32" fill="url(#waterGlow)"/>
  <g filter="url(#softShadow)">
<path d="M811.23,-283.18 L811.23,-283.18 L811.23,-283.18 L811.23,-283.18 Z M793.97,-301.4 L793.97,-301.4 L811.23,-283.18 L764.39,-289.43 L710.87,-254.17 L674.06,-218.75 L678.72,-143.97 L614.97,-120.96 L593.06,-102.59 L546.58,-71.82 L464.48,-54.7 L410.97,-26.74 L407.11,18.33 L392.72,29.83 L441.78,46.76 L511.61,92.42 L493.86,117.6 L441.37,124.46 L354.24,129.5 L306.21,176.49 L251.18,172.78 L243.46,182.22 L183.59,162.41 L168.71,181.97 L132.57,190.62 L128.23,171.03 L96.29,161.49 L63.14,144.88 L96.9,99.06 L125.99,86.84 L115.01,67.82 L146.29,11.66 L138.22,-5.35 L66.26,-16.69 L8.09,-44.61 L108.49,-111.38 L244.36,-167.34 L329.07,-241.18 L387.59,-208.55 L494.19,-204.76 L474.93,-259.68 L665.34,-304.52 L714.36,-362.86 L793.97,-301.4 Z" fill="#f6eedf" stroke="#c7baa4" stroke-width="1.15" vector-effect="non-scaling-stroke"/>
<path d="M243.46,182.22 L251.18,172.78 L306.21,176.49 L354.24,129.5 L441.37,124.46 L493.86,117.6 L511.61,92.42 L618.03,215.26 L648.55,282.74 L649.52,402.68 L603.05,459.91 L491.41,479.91 L392.86,523.08 L281.8,532 L268.02,475.31 L290.86,397.23 L236.39,288.85 L327.96,271.32 L243.46,182.22 Z" fill="#f1dfc6" stroke="#c7baa4" stroke-width="1.15" vector-effect="non-scaling-stroke"/>
<path d="M-1815.39,2217.77 L-1916.48,2185.5 L-1920.06,2095.95 L-1859.29,2048.77 L-1724.6,2019.6 L-1653.71,2022.06 L-1626.16,2061.79 L-1680.33,2107.61 L-1708.87,2167.73 L-1815.39,2217.77 Z M-5417.26,-296.71 L-5427.1,-356.06 L-5342.52,-383.16 L-5453.49,-564.02 L-5209.27,-605.61 L-5146.16,-628.79 L-5057.2,-815.18 L-4812.62,-780.92 L-4744.05,-827.98 L-4738.16,-932.38 L-4635.77,-942.11 L-4541.92,-1011.42 L-4493.68,-1019.98 L-4461.31,-947.34 L-4357.69,-892.12 L-4181.82,-853.03 L-4096.75,-769.18 L-4144.22,-647.53 L-4099.86,-602.39 L-3953.36,-584.58 L-3787.31,-570.05 L-3638.35,-505.17 L-3562.17,-493.62 L-3506,-397.64 L-3433.64,-335.82 L-3297.73,-338.24 L-3043.26,-314.9 L-2879.28,-329.38 L-2757.57,-313.88 L-2575.2,-250.64 L-2426.02,-250.73 L-2371.44,-218.36 L-2227.89,-274.26 L-2028.73,-310.4 L-1843.94,-314.35 L-1699.88,-350.98 L-1611.41,-406.74 L-1525.12,-441.75 L-1545.07,-476.11 L-1584.45,-516.12 L-1519.73,-583.23 L-1450.35,-573.82 L-1323.63,-552.71 L-1200.78,-607.98 L-1012.8,-648.31 L-922.45,-717.13 L-835.68,-746.75 L-656.59,-760.56 L-559.32,-748.83 L-545.82,-785.83 L-657.55,-858.6 L-756.48,-891.88 L-851.24,-853.46 L-972.87,-869.67 L-1042.66,-856.46 L-1074.42,-899.03 L-987.31,-1003.05 L-927.27,-1081.55 L-779.27,-1042.24 L-605.53,-1108.03 L-606.65,-1153.84 L-495.36,-1264.26 L-426.8,-1297.63 L-428.33,-1355.11 L-495.98,-1379.86 L-394.14,-1431.65 L-240.94,-1450.43 L-77.49,-1453.24 L107.04,-1422.25 L215.3,-1383.91 L291.5,-1278.91 L337.7,-1234.1 L380.65,-1170.17 L426.25,-1068.19 L640.83,-1034.91 L786.86,-960.9 L836.79,-863.08 L1024.11,-862.96 L1130.99,-904.03 L1334.75,-934.72 L1269.96,-841.04 L1222.07,-802.94 L1179.82,-688.89 L1096.91,-587.6 L947.28,-606.04 L841.46,-569.27 L873.93,-480.1 L856.19,-357.09 L793.22,-354.29 L793.97,-301.4 L714.36,-362.86 L665.34,-304.52 L474.93,-259.68 L494.19,-204.76 L387.59,-208.55 L329.07,-241.18 L244.36,-167.34 L108.49,-111.38 L8.09,-44.61 L-164.27,-14.35 L-255.03,34.31 L-387.79,62.73 L-322.27,14.49 L-348.07,-26.05 L-250.45,-96.04 L-315.57,-150.58 L-423.05,-113.83 L-562.24,-41.44 L-638.2,25.78 L-759.11,30.79 L-822,79.37 L-757.02,149.76 L-656.12,166.85 L-651.99,213.58 L-554.45,243.99 L-416.29,169.65 L-306.83,210.18 L-227.1,212.96 L-207.12,267.5 L-381.68,296.57 L-439.27,352.78 L-559.16,405.01 L-622.45,477.88 L-489.76,535.09 L-441.32,637.49 L-366.29,732.9 L-282.56,812.87 L-284.56,890.2 L-361.94,918.64 L-332.44,974.16 L-259.88,1006.48 L-278.82,1091.27 L-310.14,1173.78 L-379.03,1183.14 L-469.05,1295.83 L-568.91,1432.47 L-683.4,1556.71 L-852.95,1652.79 L-1024.43,1740.41 L-1163.36,1752.36 L-1238.73,1798.62 L-1281.36,1764.83 L-1351.1,1816.57 L-1523.39,1868.72 L-1653.85,1884.68 L-1695.94,1994.63 L-1764.26,2000.73 L-1796.59,1925.17 L-1767.39,1884.9 L-1932.8,1851.57 L-1991.07,1868.52 L-2115.19,1841.5 L-2173.9,1799.2 L-2154.4,1739.23 L-2267.11,1720.21 L-2326.54,1681.16 L-2431.62,1736.64 L-2551.5,1748.65 L-2649.82,1748.13 L-2715.97,1773.53 L-2779.89,1788.79 L-2761.26,1907.87 L-2826.98,1905.03 L-2838.08,1880.58 L-2841.78,1837.54 L-2932.21,1867.85 L-2985.6,1848.68 L-3077.15,1809.6 L-3041.26,1723.11 L-3119.33,1702.95 L-3148.73,1607.11 L-3278.87,1624.38 L-3264.09,1500.88 L-3147.31,1413.94 L-3142.34,1328.07 L-3145.97,1248.4 L-3199.78,1223.58 L-3240.99,1162.29 L-3313.1,1170.03 L-3446.03,1154.47 L-3404.39,1110.75 L-3462.2,1046.01 L-3550.09,1089.85 L-3653.51,1064.27 L-3795.61,1130.56 L-3907.83,1208 L-4007.26,1221.02 L-4061.24,1193.03 L-4126.37,1190.5 L-4214.49,1166.4 L-4281.06,1192.81 L-4362.63,1270.21 L-4372.97,1188.22 L-4448.16,1210.11 L-4591.91,1199.94 L-4731.37,1176.07 L-4831.44,1130.34 L-4927.24,1109.82 L-4968.62,1059.81 L-5037.89,1044.87 L-5162.36,977.04 L-5261.2,945.03 L-5312.31,969.94 L-5483.67,897.14 L-5604.79,831.22 L-5639.37,716.47 L-5550.89,730.46 L-5546.85,677.3 L-5595.89,624.01 L-5583.42,539.09 L-5715.93,417.06 L-5918.69,374.96 L-5955.18,294.96 L-6046.27,246.42 L-6068.22,216.55 L-6086.71,157.2 L-6082.42,116.72 L-6157.29,93.02 L-6197.81,103.5 L-6229.06,7.16 L-6193.97,-16.66 L-6210.96,-41.02 L-6093.26,-90.2 L-6008.08,-110.57 L-5877.57,-96.61 L-5830.95,-163.09 L-5672.81,-175.46 L-5628.86,-216.78 L-5434.59,-273.18 L-5417.26,-296.71 Z" fill="#f0e4d1" stroke="#c7baa4" stroke-width="1.15" vector-effect="non-scaling-stroke"/>
<path d="M2180.29,33.23 L2066.24,138.05 L2068.32,245.48 L2021.89,328.57 L2043.38,380.74 L1979.17,454.11 L1821.64,503.1 L1604.91,509.48 L1429.27,628.32 L1346.42,588.32 L1341.3,510.5 L1126.89,533.46 L980.97,582.5 L836.65,584.5 L961.65,661.1 L879.39,838.05 L799.68,881.85 L740.02,841.39 L770.26,747.56 L692.22,717.28 L642.14,645.89 L758.7,613.81 L823.37,548.37 L947.37,494.55 L1037.8,423.37 L1283.22,392.32 L1415.04,413.61 L1544.03,228.52 L1626.24,278.24 L1807.1,174.12 L1877.23,133.68 L1954.7,6.37 L1933.57,-110.7 L1985.64,-176.47 L2116.72,-195.58 L2183.95,-51.18 L2180.29,33.23 Z M2516.72,-464.42 L2603.94,-508.55 L2631.35,-391.67 L2448.45,-363.17 L2340.47,-259.78 L2146.62,-330.94 L2079.53,-217.03 L1942.41,-215.46 L1925.45,-318.97 L1986.42,-399.08 L2118.15,-404.86 L2154.08,-548.88 L2190.53,-630.02 L2335.42,-521.63 L2430.02,-486.62 L2516.72,-464.42 Z M1007.41,628.44 L1075.61,566.33 L1145.71,578.37 L1196.4,534.61 L1286.93,557.07 L1302.7,592.77 L1233.3,655.77 L1182.69,622.37 L1119.49,646.57 L1086.76,707.47 L1006.41,677.82 L1007.41,628.44 Z" fill="#f6eedf" stroke="#c7baa4" stroke-width="1.15" vector-effect="non-scaling-stroke"/>
    <text x="369.86" y="239.45" text-anchor="middle" font-family="Inter, Arial, sans-serif" font-size="22" font-weight="700" fill="#1d2745" opacity="0.72">Korean Peninsula</text>
    
    <path d="M287.41,624.7 L242,690" fill="none" stroke="#cf5639" stroke-width="2" stroke-dasharray="5 7" stroke-linecap="round"/>
    <circle cx="287.41" cy="624.7" r="7" fill="#cf5639" stroke="#fffaf2" stroke-width="4"/>
    <g transform="translate(242,690)">
      <rect x="-76" y="-20" width="152" height="40" rx="20" fill="#fffaf2" stroke="#eadfcc"/>
      <text x="0" y="6" text-anchor="middle" font-family="Inter, Arial, sans-serif" font-size="14" font-weight="800" fill="#1d2745">Jeju Island</text>
    </g>
    <text x="54" y="82" font-family="Cormorant Garamond, Georgia, serif" font-size="44" fill="#1d2745">South Korea to Jeju</text>
    <text x="56" y="116" font-family="Inter, Arial, sans-serif" font-size="15" fill="#6d756f">Jeju sits south of the peninsula, held in sea, stone and wind.</text>
  </g>
</svg>
