<svg xmlns="http://www.w3.org/2000/svg" viewBox="0 0 1000 650" role="img" aria-label="Friendly geographic outline map of Jeju Island">
  <defs>
    <linearGradient id="water" x1="0" y1="0" x2="1" y2="1">
      <stop stop-color="#edf5f1"/>
      <stop offset="1" stop-color="#d7e8e2"/>
    </linearGradient>
    <linearGradient id="land" x1="0" y1="0" x2="0" y2="1">
      <stop stop-color="#fffaf0"/>
      <stop offset="1" stop-color="#eee3cf"/>
    </linearGradient>
    <pattern id="waves" width="58" height="40" patternUnits="userSpaceOnUse">
      <path d="M-12 22 C2 15 16 29 30 22 S58 15 72 22" fill="none" stroke="#7aa294" stroke-width="1" opacity=".18"/>
    </pattern>
    <filter id="shadow" x="-20%" y="-30%" width="140%" height="160%">
      <feDropShadow dx="0" dy="14" stdDeviation="18" flood-color="#173229" flood-opacity=".13"/>
    </filter>
  </defs>
  <rect width="1000" height="650" rx="30" fill="url(#water)"/>
  <rect width="1000" height="650" rx="30" fill="url(#waves)"/>
  <g opacity=".7" fill="#fffaf0" stroke="#9bb1a9" stroke-width="2">
    <ellipse cx="864" cy="160" rx="15" ry="10"/>
    <ellipse cx="182" cy="526" rx="8" ry="5"/>
  </g>
  <g filter="url(#shadow)">
    <path d="M244.837 457.724 L198.54 481.546 L159.365 466.887 L148.681 455.892 L98.822 395.421 L84.577 364.269 L120.19 305.631 L255.521 208.511 L608.092 115.057 L672.196 111.392 L811.088 149.873 L843.14 226.836 L818.21 290.972 L786.158 334.95 L622.337 408.248 L497.691 443.065 Z" fill="url(#land)" stroke="#9dafaa" stroke-width="3" stroke-linejoin="round"/>
    <path d="M257 443 C370 403 470 411 571 357 C664 307 724 269 803 219" fill="none" stroke="#d4c4a8" stroke-width="2" stroke-dasharray="8 12" opacity=".72"/>
  </g>
  <ellipse cx="444.8" cy="312.65" rx="88" ry="52" fill="#ded0ad" opacity=".46"/>
  <ellipse cx="444.8" cy="312.65" rx="56" ry="32" fill="none" stroke="#aa9a73" stroke-width="1.5" stroke-dasharray="6 8" opacity=".65"/>
  <text x="444.8" y="318" text-anchor="middle" font-family="Georgia, serif" font-size="22" fill="#173229" opacity=".72">Hallasan</text>
  <g transform="translate(70 68)">
    <rect width="183" height="34" rx="17" fill="#fffaf2" opacity=".96"/>
    <text x="91.5" y="22" text-anchor="middle" font-family="Arial, sans-serif" font-size="9" font-weight="800" letter-spacing="1.4" fill="#173229">JEJU ISLAND FIELD NOTES</text>
  </g>
  <text x="72" y="127" font-family="Georgia, serif" font-size="32" fill="#173229">Stone, forest, coast.</text>
</svg>
