<svg xmlns="http://www.w3.org/2000/svg" viewBox="0 0 1200 760" role="img" aria-label="Pastel travel map of Asia with South Korea marked">
  <defs>
    <radialGradient id="waterGlow" cx="50%" cy="45%" r="70%">
      <stop offset="0%" stop-color="#f7fbfa"/>
      <stop offset="60%" stop-color="#dfeef0"/>
      <stop offset="100%" stop-color="#cfe3e7"/>
    </radialGradient>
    <filter id="softShadow" x="-20%" y="-20%" width="140%" height="140%">
      <feDropShadow dx="0" dy="12" stdDeviation="18" flood-color="#5f6b5f" flood-opacity="0.14"/>
    </filter>
  </defs>
  <rect width="1200" height="760" rx="32" fill="url(#waterGlow)"/>
  <g filter="url(#softShadow)">
<path d="M364.8,65.62 L354.65,73.17 L343.58,74.23 L342.94,85.61 L335.52,90.74 L309.07,87 L299.45,107.31 L292.63,109.84 L266.21,114.37 L278.22,134.07 L269.07,137.03 L270.13,143.49 L261.92,141.83 L255.23,137.75 L235.45,136.57 L213.34,136.26 L208.49,137.5 L189.5,132.74 L181.94,135.08 L179.86,141.78 L157.93,137.87 L149.15,139.47 L146.16,144.44 L138.52,146.54 L120.93,154.45 L115.1,162.56 L110.13,162.64 L106.48,157.26 L89.52,156.9 L86.81,147.6 L80.31,147.52 L81.31,136.15 L65.34,127.86 L42.48,128.75 L26.84,130.4 L14.11,120.17 L3.2,115.88 L-17.47,107.76 L-19.96,106.78 L-54.28,113.48 L-53.76,155.3 L-60.6,155.86 L-69.93,146.96 L-78.94,143.79 L-94.08,146.15 L-99.97,149.92 L-100.72,147.15 L-97.44,142.43 L-99.98,138.48 L-115.43,134.61 L-121.45,124.42 L-128.81,121.55 L-129.26,117.86 L-116.29,118.94 L-115.77,110.64 L-104.43,108.8 L-92.79,110.49 L-90.39,99.43 L-92.76,92.41 L-106.11,92.96 L-117.44,90.19 L-132.88,95.18 L-145.32,97.56 L-152.09,95.73 L-150.74,89.89 L-159.24,82.31 L-169.13,82.63 L-180.45,74.93 L-172.75,66.34 L-176.65,64.02 L-166.01,51.56 L-152.3,58.14 L-150.63,49.85 L-123.11,37.51 L-102.28,37.22 L-72.89,45.08 L-57.11,49.66 L-42.96,44.88 L-21.82,44.65 L-4.77,50.53 L-0.9,47.16 L17.83,47.65 L21.17,42.28 L-0.43,34.48 L12.36,28.95 L9.87,25.86 L22.67,22.91 L13.04,15.14 L19.15,11.27 L69.05,7.33 L75.56,4.52 L108.92,0.34 L120.91,-4.37 L144.87,-1.93 L149.07,9.83 L162.99,7.07 L180.11,10.94 L179.01,17.13 L191.8,16.48 L225.21,5.78 L220.34,9.34 L237.35,18.1 L267.14,46.91 L274.25,40.97 L292.61,47.5 L311.77,44.59 L319.13,46.63 L325.55,53.18 L334.87,55.39 L340.55,60.2 L357.72,58.68 L364.8,65.62 Z" fill="#f6eedf" stroke="#c7baa4" stroke-width="1.15" vector-effect="non-scaling-stroke"/>
<path d="M-53.76,155.3 L-54.28,113.48 L-19.96,106.78 L-17.47,107.76 L3.2,115.88 L14.11,120.17 L26.84,130.4 L42.48,128.75 L65.34,127.86 L81.31,136.15 L80.31,147.52 L86.81,147.6 L89.52,156.9 L106.48,157.26 L110.13,162.64 L115.1,162.56 L120.93,154.45 L138.52,146.54 L146.16,144.44 L150.12,145.56 L138.93,152.91 L148.77,157.18 L158.27,154.35 L174.07,160.33 L157,168.49 L146.86,167.38 L141.35,167.67 L139.44,164.52 L142.22,159.26 L124.39,161.89 L120.16,169.17 L113.82,175.44 L102.69,174.91 L99.23,179.9 L109.01,182.61 L111.89,191.05 L104.4,202.53 L94.34,200.14 L86.91,200.06 L87.28,193.12 L69.55,188.27 L55.6,182.71 L46.91,177.37 L31.66,169.54 L25.1,157.84 L20.63,155.78 L6.21,156.31 L1.11,153.98 L-0.31,144.93 L-18.28,138.94 L-29.51,145.53 L-40.9,149.44 L-38.71,155.15 L-53.76,155.3 Z" fill="#f0e4d1" stroke="#c7baa4" stroke-width="1.15" vector-effect="non-scaling-stroke"/>
<path d="M1080,653.37 L1103.14,661.19 L1127.79,667.68 L1136.98,673.49 L1144.4,679.2 L1146.43,685.88 L1168.64,692.89 L1171.88,698.91 L1159.61,700.13 L1162.56,707.69 L1174.46,715.13 L1183.12,727.16 L1190.76,726.78 L1190.22,731.81 L1200.52,733.73 L1196.52,735.87 L1210.69,740.64 L1209.21,743.92 L1200.38,744.71 L1197.1,741.77 L1185.64,740.5 L1172.17,738.79 L1161.81,731.56 L1154.24,725.32 L1147.31,715.39 L1129.92,710.43 L1118.63,713.67 L1110.49,717.41 L1112.19,725.78 L1101.71,729.68 L1094.24,727.78 L1080.45,727.31 L1080.23,690.34 L1080,653.37 Z M1235.2,665.4 L1240.27,669.03 L1241.87,674.93 L1237.7,677.95 L1235.18,671.25 L1232.08,666.87 L1226.04,663.15 L1218.46,658.31 L1208.83,654.98 L1212.53,652.24 L1219.73,655.41 L1224.27,657.91 L1229.87,660.63 L1235.2,665.4 Z M1217.35,690.13 L1210.06,692.89 L1203.22,695.54 L1196.13,695.53 L1185.2,692.24 L1177.59,689.07 L1178.69,685.56 L1190.65,687.22 L1197.94,686.33 L1199.95,680.89 L1201.86,680.61 L1203.16,686.63 L1210.77,685.77 L1214.53,681.89 L1221.97,677.84 L1220.5,671.16 L1228.49,670.94 L1231.18,672.8 L1230.92,679.1 L1226.44,686.02 L1219.45,686.95 L1217.35,690.13 Z M1263.47,684.45 L1267.51,687.03 L1273.97,694.22 L1280.27,698.07 L1278.4,701.24 L1274.67,702.38 L1268.89,698.02 L1263.06,690.82 L1260.19,682.18 L1262.03,681.08 L1263.47,684.45 Z" fill="#f0e4d1" stroke="#c7baa4" stroke-width="1.15" vector-effect="non-scaling-stroke"/>
<path d="M1080,653.37 L1080.23,690.34 L1080.45,727.31 L1068.58,718 L1055.04,715.72 L1051.75,718.95 L1034.86,719.3 L1040.52,710.07 L1048.91,706.92 L1045.44,694.58 L1039.04,685.06 L1013.19,675.45 L1002.19,674.5 L982.17,664.02 L978.24,669.54 L973.12,670.54 L970.09,666.38 L970.05,661.45 L959.86,655.87 L974.22,651.79 L983.73,652.01 L982.62,649 L963.1,648.98 L957.82,642.22 L945.9,640.13 L940.26,634.52 L958.23,631.77 L965.07,628.07 L986.47,632.73 L988.58,636.95 L992.3,655.29 L1006.1,662.08 L1017.24,650.05 L1032.54,643.2 L1044.4,643.19 L1055.8,647.15 L1065.69,651.21 L1080,653.37 Z M866.25,724.75 L867.6,726.99 L867.85,730.43 L859.15,738.9 L847.73,741.4 L846.13,740.04 L847.33,736.18 L853.07,729.26 L866.25,724.75 Z M989.47,702.1 L988.17,693.56 L990.54,689.48 L993.33,685.65 L996.36,688.96 L996.33,694.37 L989.47,702.1 Z M771.76,576.95 L764.18,587.19 L773.98,597.93 L771.68,603.15 L786.62,613.65 L770.82,614.98 L766.38,622.72 L766.96,633 L754.13,640.76 L753.78,652.05 L748.64,669.4 L746.68,665.36 L731.53,670.47 L726.25,663.53 L716.74,662.89 L710.09,659.26 L694.24,663.34 L689.38,657.85 L680.64,658.47 L669.65,657.16 L667.61,641.95 L660.96,638.8 L654.56,629.09 L652.7,619.17 L654.26,608.66 L662.18,601.12 L664.4,608.7 L673.52,615.11 L682.12,612.8 L690.63,613.62 L698.4,607.89 L704.8,606.89 L717.41,610.07 L728.28,607.65 L735.12,591.88 L740.25,587.93 L744.87,575.03 L760.2,575.04 L771.76,576.95 Z M924.95,655.67 L939.62,658.97 L944.46,667.65 L933.21,662.97 L922.07,662.02 L914.54,662.77 L905.32,662.37 L908.48,656.14 L924.95,655.67 Z M891.67,666.88 L882.45,664.8 L879.85,659.92 L893.34,659.38 L896.66,663.12 L891.67,666.88 Z M905.77,599.21 L906.72,605.41 L914.59,606.4 L915.84,611.04 L915.15,620.95 L908.27,619.84 L906.24,626.74 L911.73,632.73 L908,634.09 L902.62,626.9 L898.66,612.4 L901.34,603.34 L905.77,599.21 Z M839.03,613.95 L854.37,613.48 L867.55,605.24 L869.87,607.77 L859.16,619.03 L849.14,621.21 L836.31,618.99 L814.09,619.56 L802.44,621.19 L800.54,629.78 L812.48,639.86 L819.68,634.72 L844.54,630.86 L843.45,636.09 L837.64,634.44 L831.85,641.09 L820.11,645.48 L832.73,660.02 L830.29,663.92 L842.28,677.01 L842.16,684.46 L835.05,687.8 L829.82,683.81 L836.26,674.52 L823.18,678.91 L819.86,675.77 L821.59,671.39 L811.98,664.74 L812.97,653.69 L804.07,657.13 L805.2,670.36 L805.74,686.59 L797.29,688.24 L791.56,684.91 L795.38,674.47 L793.32,663.52 L787.71,663.43 L783.57,655.66 L789.08,648.24 L790.98,639.23 L797.68,622.13 L800.48,617.45 L811.81,609.03 L822.22,612.38 L839.03,613.95 Z M803.93,740.25 L786.24,732.3 L798.67,730.07 L805.68,733.52 L810.34,736.97 L809.54,740.03 L803.93,740.25 Z M817.89,720.72 L826.76,719.85 L838.71,715.7 L836.76,722 L816.73,725.22 L798.99,723.82 L798.95,719.67 L809.53,717.31 L817.89,720.72 Z M776.81,718.74 L785.05,717.81 L788.35,722.63 L772.94,724.91 L763.7,726.43 L756.54,726.34 L761.12,719.81 L768.43,719.72 L772,715.71 L776.81,718.74 Z M646.49,696.73 L648.31,700.76 L673.86,701.89 L676.79,697.22 L701.53,702.67 L706.38,710.02 L726.39,712.09 L742.74,718.83 L727.53,723.15 L712.86,718.59 L700.8,718.89 L686.96,718.05 L674.48,716.02 L659.04,711.69 L649.25,710.56 L643.7,711.98 L619.39,707.31 L617.07,702.43 L604.87,701.6 L614.02,690.76 L630.2,691.43 L640.96,695.86 L646.49,696.73 Z M591.6,636.19 L593.86,644.1 L598.51,650.43 L608.29,651.43 L614.78,658.61 L611.43,672.72 L610.9,690.27 L596.14,690.5 L584.91,681.02 L567.79,671.75 L562.08,664.88 L551.99,655.64 L545.37,647.14 L535.23,631.26 L523.52,621.8 L519.6,612.05 L514.68,603.2 L502.66,596.05 L495.69,586.35 L485.65,580 L471.75,567.5 L470.57,561.72 L479.16,562.18 L499.8,564.37 L511.59,575.46 L521.9,583.15 L529.25,587.87 L541.89,600.07 L555.44,600.24 L566.64,608.01 L574.36,617.51 L584.51,622.69 L579.17,631.96 L586.81,635.9 L591.6,636.19 Z" fill="#f6eedf" stroke="#c7baa4" stroke-width="1.15" vector-effect="non-scaling-stroke"/>
<path d="M1583,-182.61 L1600,-187.34 L1600,-179.59 L1585.38,-179.01 L1583,-182.61 Z M-145.32,97.56 L-151.39,104.29 L-164.32,106.16 L-177.57,117.87 L-165.45,128.63 L-166.77,136.27 L-152.21,149.63 L-152.21,149.63 L-160.17,154.2 L-162.46,157.09 L-168.36,156.31 L-177.52,149.42 L-181.27,149.04 L-189.65,146.41 L-193.73,141.76 L-206.17,139.39 L-214.25,141.17 L-216.59,139.06 L-234.74,133.62 L-254.37,131.78 L-265.64,129.85 L-267.27,131.19 L-284.27,121.6 L-299.48,117.32 L-310.99,110.66 L-301.29,108.84 L-290.23,99.36 L-297.68,94.87 L-278.03,90.24 L-278.38,87.76 L-290.35,89.59 L-289.93,84.55 L-283.06,81.38 L-270.16,80.55 L-268.06,76.77 L-271,70.51 L-265.59,64.57 L-265.75,61.24 L-285.4,57.55 L-293.19,57.67 L-301.42,52.36 L-311.65,54.16 L-328.59,50.17 L-328.29,47.94 L-333.04,43.02 L-343.67,42.47 L-344.77,38.95 L-341.44,36.65 L-349.96,30.23 L-363.79,31.32 L-367.84,30.76 L-371.21,33.34 L-376.19,32.88 L-376.19,32.88 L-379.47,25.61 L-382.6,21.85 L-380.03,20.79 L-369.27,21.18 L-364.08,18.7 L-367.93,15.68 L-376.92,13.68 L-376.11,11.63 L-381.54,9.56 L-389.9,2.14 L-387.04,-0.93 L-388.35,-6.25 L-401.38,-8.96 L-408.38,-7.6 L-410.27,-10.42 L-424.31,-13.26 L-428.6,-19.96 L-429.73,-25.46 L-436.16,-28.07 L-430.44,-31.67 L-434.4,-42.25 L-424.91,-48.79 L-426.92,-50.77 L-426.92,-50.77 L-411.76,-57.03 L-425.73,-62.43 L-425.73,-62.43 L-397.19,-76.91 L-384.8,-83.46 L-379.79,-89.25 L-399.52,-97.02 L-394.07,-104.41 L-406.07,-112.85 L-397.1,-122.58 L-412.61,-135.49 L-400.3,-144.04 L-420.72,-151.6 L-418.77,-159.54 L-408.01,-160.59 L-385.32,-165.14 L-385.32,-165.14 L-371.56,-169.08 L-349.66,-162.23 L-313.15,-159.53 L-262.77,-146.7 L-252.54,-141.3 L-251.65,-133.76 L-266.46,-127.8 L-288.23,-124.77 L-347.75,-133.39 L-357.54,-131.95 L-335.8,-123.64 L-334.95,-118.38 L-334.08,-106.79 L-316.92,-103.33 L-306.5,-100.39 L-304.77,-105.89 L-312.81,-110.76 L-304.32,-115.06 L-272.09,-108 L-260.86,-110.76 L-269.83,-119.07 L-238.76,-130.18 L-226.45,-129.52 L-214,-125.56 L-206.24,-133.36 L-217.35,-140.12 L-210.83,-146.9 L-220.63,-153.94 L-183.33,-150.3 L-175.72,-143.95 L-192.6,-142.55 L-192.51,-136.23 L-182.01,-132.35 L-161.41,-134.81 L-158.15,-142.04 L-130.3,-147.45 L-83.77,-157.19 L-73.71,-156.63 L-86.86,-149.75 L-70.32,-148.56 L-60.76,-152.44 L-35.77,-152.75 L-15.97,-157.45 L-0.78,-150.62 L14.37,-158.13 L0.4,-164.7 L7.33,-168.45 L46.72,-165.02 L65.17,-161.47 L113.5,-148.51 L122.41,-154.45 L108.86,-160.44 L108.47,-162.85 L92.4,-163.96 L96.8,-169.34 L89.67,-178.19 L89.26,-181.82 L113.87,-192.09 L122.62,-202.4 L132.53,-204.63 L167.83,-201.64 L170.61,-195.33 L157.97,-186.13 L166.27,-182.52 L170.56,-174.59 L167.53,-159.04 L182.24,-152.09 L176.52,-144.52 L150.4,-128.41 L165.64,-126.73 L170.94,-130.82 L185.61,-133.73 L189.15,-139.34 L200.69,-144.75 L192.92,-151.19 L199.14,-158.68 L184.56,-159.62 L181.36,-165.93 L192,-177.32 L174.68,-186.56 L198.54,-194.21 L195.46,-202.28 L202.11,-202.53 L209.11,-196.25 L203.85,-185.3 L218.12,-183.23 L212.04,-191.41 L234.36,-195.87 L262.03,-196.47 L286.67,-190 L274.81,-199.45 L273.48,-211.53 L296.67,-213.82 L328.74,-213.32 L357.63,-214.81 L346.79,-220.74 L362.22,-228.19 L377.54,-228.5 L403.47,-234.13 L438.67,-235.64 L443.12,-238.74 L478.13,-239.8 L489.04,-237.25 L518.97,-243.28 L543.46,-243.09 L547.14,-247.99 L559.88,-252.81 L591.35,-257.47 L614.22,-253.79 L596.07,-251 L626.27,-249.26 L629.87,-243.65 L642.05,-246.41 L681.03,-246.26 L711.09,-240.73 L721.79,-236.48 L718.47,-230.58 L703.72,-227.23 L668.68,-220.93 L658.67,-217.56 L675.2,-215.98 L694.92,-213.11 L706.93,-215.26 L713.73,-207.98 L719.58,-210.93 L740.9,-212.72 L783.68,-210.85 L786.93,-205.54 L842.68,-203.85 L843.44,-212.52 L871.73,-210.53 L893.02,-210.59 L914.55,-204.62 L920.69,-197.36 L912.8,-192.61 L929.55,-183.68 L950.51,-179.08 L963.38,-190.98 L984.77,-185.88 L1007.49,-188.93 L1033.3,-185.44 L1043.12,-188.62 L1064.93,-187.03 L1055.31,-197.56 L1072.91,-202.47 L1193.33,-195.1 L1204.68,-188.37 L1239.59,-179.7 L1293.43,-181.85 L1319.97,-179.98 L1331.07,-175.29 L1329.45,-167 L1345.87,-163.77 L1363.72,-166.09 L1387.37,-166.39 L1412.54,-164.16 L1437.81,-165.42 L1461.04,-155.33 L1477.56,-158.96 L1466.78,-166.21 L1472.71,-171.25 L1515.25,-168.08 L1542.99,-168.76 L1581.33,-163.34 L1600,-158.39 L1600,-113.2 L1599.9,-113.14 L1582.76,-108.16 L1565.48,-108.99 L1577.51,-102.95 L1585.44,-93.6 L1591.6,-90.55 L1593.15,-85.86 L1589.71,-82.85 L1564.86,-85.32 L1527.59,-76.78 L1515.74,-75.46 L1495.33,-67.49 L1475.98,-60.53 L1471.08,-55.38 L1452.01,-63.22 L1417.27,-54.32 L1411.2,-58.53 L1398.36,-53.67 L1380.52,-55.23 L1376.23,-47.77 L1360.23,-36.79 L1360.71,-32.2 L1375.89,-29.66 L1374.11,-13.15 L1361.73,-12.73 L1356.02,-3.24 L1361.57,1.64 L1338.25,7.44 L1333.62,20.39 L1313.75,23.16 L1309.75,34.68 L1290.53,45.25 L1285.6,37.43 L1279.89,20.88 L1272.45,-4.32 L1278.86,-20.05 L1290.11,-26.82 L1290.8,-32.12 L1311.52,-34.66 L1335.34,-48.94 L1358.29,-60.61 L1382.26,-69.66 L1392.98,-85.65 L1376.78,-84.69 L1368.77,-75.35 L1334.95,-62.89 L1324.03,-76.84 L1289.61,-72.99 L1256.24,-53.97 L1267.25,-47.02 L1237.49,-44.06 L1216.88,-42.89 L1217.84,-51.09 L1197.12,-52.81 L1180.6,-47.24 L1139.83,-49.19 L1095.97,-45.83 L1052.78,-23.69 L1001.68,3.07 L1022.69,4.5 L1029.25,11.6 L1042.2,14.12 L1050.73,8.46 L1065.35,9.19 L1084.6,21.67 L1085.06,31.32 L1074.63,42.65 L1073.51,56.2 L1067.49,74.34 L1047.4,90.75 L1042.93,98.6 L1024.83,111.81 L1006.87,124.9 L998.26,131.6 L980.49,138.26 L972.08,138.41 L963.71,132.89 L945.81,141.19 L943.73,144.97 L943.73,144.97 L943.73,144.97 L943.73,144.97 L941.87,142.98 L941.87,142.98 L941.78,137.22 L948.6,136.91 L950.51,123.51 L947,113.8 L958.45,109.79 L974.63,111.8 L983.6,100.76 L988.16,88.34 L993.34,84.18 L1000.35,73.98 L978.31,77.32 L966.76,81.8 L946.5,81.78 L941.1,71.13 L925.3,63.06 L902.1,59.44 L897.17,48.32 L892.52,41.36 L887.53,36.48 L879.28,25.04 L867.58,20.86 L847.62,17.48 L829.94,17.79 L813.37,19.83 L802.36,25.48 L809.68,28.17 L809.84,34.44 L802.43,38.07 L790.39,50.1 L790.51,55.1 L771.72,62.26 L755.72,57.98 L739.81,58.93 L732.83,55.13 L724.83,53.9 L705.3,61.89 L687.75,63.77 L675.49,66.58 L658.7,64.74 L646.34,64.85 L638.24,59.06 L625.18,53.61 L611.82,52.11 L594.95,53.59 L582.35,55.7 L563.41,50.92 L560.87,42.42 L545.19,39.51 L533.09,38.18 L518.15,33.49 L504.34,45.25 L509.76,51.93 L496.8,59.82 L477.52,56.97 L464.21,56.56 L455.3,51.27 L441.39,51.1 L429.8,47.62 L409.52,52.95 L384.07,62.72 L370.02,64.69 L364.8,65.62 L357.72,58.68 L340.55,60.2 L334.87,55.39 L325.55,53.18 L319.13,46.63 L311.77,44.59 L292.61,47.5 L274.25,40.97 L267.14,46.91 L237.35,18.1 L220.34,9.34 L225.21,5.78 L191.8,16.48 L179.01,17.13 L180.11,10.94 L162.99,7.07 L149.07,9.83 L144.87,-1.93 L120.91,-4.37 L108.92,0.34 L75.56,4.52 L69.05,7.33 L19.15,11.27 L13.04,15.14 L22.67,22.91 L9.87,25.86 L12.36,28.95 L-0.43,34.48 L21.17,42.28 L17.83,47.65 L-0.9,47.16 L-4.77,50.53 L-21.82,44.65 L-42.96,44.88 L-57.11,49.66 L-72.89,45.08 L-102.28,37.22 L-123.11,37.51 L-150.63,49.85 L-152.3,58.14 L-166.01,51.56 L-176.65,64.02 L-172.75,66.34 L-180.45,74.93 L-169.13,82.63 L-159.24,82.31 L-150.74,89.89 L-152.09,95.73 L-145.32,97.56 Z M450.37,-295.2 L479.21,-297.77 L505.12,-292.06 L535.82,-281.09 L532.53,-270.89 L503.44,-269.47 L466.3,-272.75 L444.17,-277.08 L433.94,-285.21 L415.75,-287.46 L450.37,-295.2 Z M571.17,-275.43 L604.97,-268.99 L601.01,-264.38 L525.84,-260 L550.2,-274.89 L561.15,-276.17 L571.17,-275.43 Z M1051.08,-239.76 L1086.29,-239.26 L1134.48,-233.25 L1124,-224.82 L1074.85,-225.14 L1052.74,-222.46 L1026.33,-229.83 L1033.49,-237.63 L1051.08,-239.76 Z M1176.3,-230.79 L1209.76,-227.82 L1194.35,-223.34 L1173.03,-224.35 L1148.26,-228.83 L1151.45,-232.5 L1176.3,-230.79 Z M1064.84,-208.37 L1077.49,-212.86 L1094.16,-213.91 L1113.1,-209.57 L1114.72,-206.59 L1094.5,-206.51 L1067.18,-207.77 L1064.84,-208.37 Z M-202.04,-290.27 L-176.01,-292.34 L-155.75,-292.48 L-153.03,-289.42 L-145.37,-292.13 L-132.8,-294.01 L-113.03,-291.52 L-118.18,-289.79 L-136.08,-288.29 L-148.07,-287.43 L-149.93,-285.57 L-165.52,-283.7 L-179.96,-286.39 L-172.37,-289.93 L-202.04,-290.27 Z M-496.92,7.63 L-521.44,7.8 L-537.86,6.51 L-534.82,1.52 L-516.42,-2.16 L-502.46,-0.17 L-496.56,1.63 L-497.99,4.73 L-496.92,7.63 Z M-86.56,-212.68 L-54.63,-222.64 L-58.24,-227.79 L-28.42,-233.78 L15.6,-241.07 L59.98,-243.19 L82.81,-247.39 L108.76,-248.87 L118.03,-244.39 L109.07,-240.86 L61.83,-235.23 L21.11,-229.82 L-20.31,-219.03 L-40.18,-207.96 L-61.08,-197.05 L-58.36,-187.62 L-32.86,-178.32 L-40.73,-177.33 L-84.3,-178.8 L-87.84,-183.84 L-111.97,-186.88 L-113.92,-193 L-100.29,-195.44 L-100.74,-201.62 L-74.3,-211.3 L-86.56,-212.68 Z M1105.53,14.69 L1110.14,25.63 L1109.8,36.79 L1115.31,48.24 L1128.72,68.33 L1108.99,64.58 L1100.78,80.97 L1113.78,92.6 L1113.4,100.53 L1103.3,93.69 L1094.56,102.47 L1092.09,92.95 L1093.58,81.9 L1092.06,69.66 L1095.14,61.08 L1095.73,45.91 L1087.92,34.76 L1089.1,19.26 L1101.43,14.04 L1096.13,8.79 L1102.06,7.19 L1105.53,14.69 Z M-3132.38,-138.45 L-3133.52,-131.4 L-3124.53,-128.58 L-3127.62,-136.82 L-3091.43,-135.13 L-3065.33,-124.52 L-3078.55,-119.57 L-3100.4,-118.4 L-3100.73,-107.32 L-3106.07,-104.96 L-3118.56,-105.3 L-3128.72,-109.25 L-3146.45,-112.56 L-3149.43,-117.48 L-3162.97,-119.33 L-3178.13,-117.86 L-3185.38,-121.83 L-3182.48,-126.05 L-3198.45,-123.35 L-3192.44,-118.02 L-3200,-113.2 L-3200,-158.39 L-3167.33,-149.73 L-3132.38,-138.45 Z M-3182.58,-180.28 L-3200,-179.59 L-3200,-187.34 L-3198.29,-187.82 L-3186.99,-187.79 L-3167.71,-184.55 L-3168.85,-183 L-3182.58,-180.28 Z M-354.19,102.41 L-350.67,99.6 L-341.19,102.03 L-336.91,102.48 L-335.18,104.72 L-333.16,105.06 L-333.06,106.05 L-326.53,108.78 L-312.93,108.1 L-315.54,112.15 L-330.13,114.11 L-348.23,120.68 L-355.65,118.37 L-352.71,113.04 L-367.28,109.72 L-364.92,107.54 L-352.16,103.77 L-354.19,102.41 Z" fill="#f0e4d1" stroke="#c7baa4" stroke-width="1.15" vector-effect="non-scaling-stroke"/>
<path d="M866.25,724.75 L867.82,722.08 L879.29,719.53 L888.6,719.14 L892.76,717.73 L897.81,719.13 L892.91,722.21 L879.01,727.17 L867.85,730.43 L867.6,726.99 L866.25,724.75 Z" fill="#f0e4d1" stroke="#c7baa4" stroke-width="1.15" vector-effect="non-scaling-stroke"/>
<path d="M567.8,485.64 L564.64,471.95 L573.18,462.51 L590.42,460.35 L602.92,461.98 L613.92,466.42 L619.95,458.6 L631.77,462.78 L634.86,470.34 L633.22,483.94 L610.81,492.67 L616.66,499.54 L602.67,500.36 L591.12,504.93 L579.96,503.27 L574.54,497.36 L567.8,485.64 Z" fill="#f6eedf" stroke="#c7baa4" stroke-width="1.15" vector-effect="non-scaling-stroke"/>
<path d="M602.92,461.98 L590.42,460.35 L573.18,462.51 L564.64,471.95 L567.8,485.64 L555.83,480.44 L544.42,480.65 L546.38,471.74 L534.64,471.8 L533.58,484.28 L526.39,500.85 L522.05,510.87 L522.97,519.08 L531.65,519.43 L537.06,529.79 L539.46,539.6 L546.9,546.1 L554.97,547.42 L561.88,553.31 L557.52,557.97 L548.72,559.32 L547.67,553.5 L536.79,548.53 L534.48,550.55 L529.21,546.2 L526.93,540.58 L519.84,534.18 L513.38,528.8 L511.2,535.47 L508.67,529.16 L510.12,522.09 L514.05,511.21 L520.51,499.55 L527.83,488.98 L522.62,478.63 L522.83,473.36 L521.3,467.03 L512.41,458.02 L509.23,452.33 L513.83,450.23 L518.71,440.37 L513.25,432.88 L504.79,424.6 L498.35,414.65 L503.97,412.59 L510.05,400.32 L519.46,399.82 L527.24,394.9 L534.88,392.28 L540.65,395.78 L541.42,402.59 L550.43,403.11 L547.15,415.06 L547.46,425.23 L561.51,418.46 L565.51,420.46 L573.32,420.14 L576,416.19 L586.09,416.97 L596.23,426.18 L597.06,437.38 L607.85,447.26 L607.26,456.86 L602.92,461.98 Z" fill="#f0e4d1" stroke="#c7baa4" stroke-width="1.15" vector-effect="non-scaling-stroke"/>
<path d="M631.77,462.78 L619.95,458.6 L613.92,466.42 L602.92,461.98 L607.26,456.86 L607.85,447.26 L597.06,437.38 L596.23,426.18 L586.09,416.97 L576,416.19 L573.32,420.14 L565.51,420.46 L561.51,418.46 L547.46,425.23 L547.15,415.06 L550.43,403.11 L541.42,402.59 L540.65,395.78 L534.88,392.28 L537.72,388.1 L549.07,380.72 L550.27,383.38 L557.37,383.69 L555.36,370.72 L562.27,369.06 L570.07,378.01 L576.05,388.32 L592.47,388.41 L597.63,398.3 L589.11,401.27 L585.29,405.35 L601.26,412.14 L612.34,425.54 L620.75,435.53 L630.84,443.43 L634.19,451.44 L631.77,462.78 Z" fill="#f0e4d1" stroke="#c7baa4" stroke-width="1.15" vector-effect="non-scaling-stroke"/>
<path d="M534.88,392.28 L527.24,394.9 L519.46,399.82 L510.05,400.32 L503.97,412.59 L498.35,414.65 L504.79,424.6 L513.25,432.88 L518.71,440.37 L513.83,450.23 L509.23,452.33 L512.41,458.02 L521.3,467.03 L522.83,473.36 L522.62,478.63 L527.83,488.98 L520.51,499.55 L514.05,511.21 L512.76,502.79 L516.86,494.1 L512.38,487.39 L513.46,475.03 L508.05,469.15 L503.7,455.58 L501.29,441.25 L495.53,431.85 L486.74,437.54 L471.59,445.63 L464.11,444.62 L455.85,441.96 L460.45,427.9 L457.66,417.28 L447.21,404.2 L448.84,400.11 L441.04,398.66 L431.58,389.4 L430.71,380.28 L435.36,382 L435.64,373.86 L442.22,371.17 L440.8,366.35 L443.82,362.49 L444.34,350.75 L454.76,353.33 L460.7,343.98 L461.38,338.46 L468.74,328.94 L468.33,322.45 L485.59,314.61 L495.12,316.66 L494.03,309.68 L498.7,307.6 L497.69,303.3 L505.49,302.46 L509.95,309.14 L515.77,311.84 L516.16,320.52 L515.62,329.88 L502.99,339.35 L501.4,352.81 L515.47,350.92 L518.65,361.37 L527.09,363.56 L523.21,372.99 L533.11,377.24 L538.89,379.33 L548.67,376.03 L549.07,380.72 L537.72,388.1 L534.88,392.28 Z" fill="#f6eedf" stroke="#c7baa4" stroke-width="1.15" vector-effect="non-scaling-stroke"/>
<path d="M591.12,504.93 L602.67,500.36 L616.66,499.54 L610.81,492.67 L633.22,483.94 L634.86,470.34 L631.77,462.78 L634.19,451.44 L630.84,443.43 L620.75,435.53 L612.34,425.54 L601.26,412.14 L585.29,405.35 L589.11,401.27 L597.63,398.3 L592.47,388.41 L576.05,388.32 L570.07,378.01 L562.27,369.06 L569.43,366.29 L580.06,366.35 L593.02,365.04 L604.39,358.99 L610.82,363.25 L623.01,365.32 L620.9,371.85 L627.25,376.46 L640.67,379.41 L622.87,389.11 L611.76,399.83 L608.83,407.7 L619.02,419.65 L631.49,434.48 L643.59,441.48 L651.69,450.59 L657.8,471.59 L656,491.54 L644.88,499.01 L629.61,506.31 L618.73,515.77 L602.11,526.33 L597.27,519.06 L601.02,511.37 L591.12,504.93 Z" fill="#f0e4d1" stroke="#c7baa4" stroke-width="1.15" vector-effect="non-scaling-stroke"/>
<path d="M943.73,144.97 L943.73,144.97 L943.73,144.97 L943.73,144.97 Z M941.87,142.98 L941.87,142.98 L943.73,144.97 L938.67,144.29 L932.88,148.13 L928.9,151.99 L929.4,160.14 L922.51,162.64 L920.14,164.64 L915.11,168 L906.23,169.86 L900.45,172.91 L900.03,177.82 L898.47,179.07 L903.78,180.92 L911.33,185.89 L909.41,188.63 L903.73,189.38 L894.31,189.93 L889.12,195.05 L883.16,194.65 L882.33,195.68 L875.85,193.52 L874.25,195.65 L870.34,196.59 L869.87,194.46 L866.41,193.42 L862.83,191.61 L866.48,186.61 L869.63,185.28 L868.44,183.21 L871.82,177.09 L870.95,175.24 L863.17,174 L856.88,170.96 L867.73,163.69 L882.43,157.59 L891.59,149.54 L897.92,153.1 L909.45,153.51 L907.36,147.53 L927.96,142.64 L933.26,136.29 L941.87,142.98 Z" fill="#f0e4d1" stroke="#c7baa4" stroke-width="1.15" vector-effect="non-scaling-stroke"/>
<path d="M882.33,195.68 L883.16,194.65 L889.12,195.05 L894.31,189.93 L903.73,189.38 L909.41,188.63 L911.33,185.89 L922.84,199.27 L926.14,206.63 L926.24,219.7 L921.22,225.93 L909.14,228.11 L898.49,232.81 L886.48,233.78 L884.99,227.61 L887.46,219.1 L881.57,207.29 L891.47,205.38 L882.33,195.68 Z" fill="#f1dfc6" stroke="#c7baa4" stroke-width="1.15" vector-effect="non-scaling-stroke"/>
<path d="M370.02,64.69 L384.07,62.72 L409.52,52.95 L429.8,47.62 L441.39,51.1 L455.3,51.27 L464.21,56.56 L477.52,56.97 L496.8,59.82 L509.76,51.93 L504.34,45.25 L518.15,33.49 L533.09,38.18 L545.19,39.51 L560.87,42.42 L563.41,50.92 L582.35,55.7 L594.95,53.59 L611.82,52.11 L625.18,53.61 L638.24,59.06 L646.34,64.85 L658.7,64.74 L675.49,66.58 L687.75,63.77 L705.3,61.89 L724.83,53.9 L732.83,55.13 L739.81,58.93 L755.72,57.98 L749.22,66.53 L739.8,77.87 L743.24,82.5 L750.79,81.07 L763.94,82.83 L774.19,78.65 L784.89,82.27 L796.97,90.2 L795.51,94.23 L784.99,92.95 L765.62,94.46 L756.24,97.69 L746.47,105.18 L726.14,109.58 L712.85,115.6 L699.15,113.3 L691.64,112.27 L684.65,119.59 L688.9,123.95 L691.06,127.69 L681.73,131.5 L672.16,137.58 L656.58,141.57 L636.6,142 L615.06,145.94 L599.53,152.03 L593.63,148.5 L577.5,148.51 L557.77,141.62 L544.61,139.93 L526.88,141.51 L499.36,138.97 L484.66,139.23 L476.83,132.5 L470.76,122.04 L462.52,120.78 L446.41,113.71 L428.45,112.13 L412.61,110.19 L407.81,105.27 L412.94,92.02 L403.74,82.88 L384.72,78.62 L373.52,72.6 L370.02,64.69 Z" fill="#f0e4d1" stroke="#c7baa4" stroke-width="1.15" vector-effect="non-scaling-stroke"/>
<path d="M497.69,303.3 L498.7,307.6 L494.03,309.68 L495.12,316.66 L485.59,314.61 L468.33,322.45 L468.74,328.94 L461.38,338.46 L460.7,343.98 L454.76,353.33 L444.34,350.75 L443.82,362.49 L440.8,366.35 L442.22,371.17 L435.64,373.86 L428.61,355.87 L424.93,355.9 L422.75,363.15 L415.45,357.27 L419.57,350.82 L425.53,350.16 L431.68,340.56 L423.99,338.63 L411.63,338.79 L398.94,337.24 L397.77,329.35 L391.4,328.79 L380.84,323.89 L376.13,331.59 L385.75,337.59 L377.42,341.82 L374.46,345.95 L382.67,348.99 L380.4,355.83 L385.02,364.36 L387.09,373.7 L385.18,377.84 L376.11,377.7 L359.68,380.05 L360.44,388.58 L353.32,395.29 L334.14,402.93 L319.21,416.28 L309.19,423.43 L295.9,430.86 L295.88,436.07 L289.24,438.87 L277.23,442.93 L271,443.53 L267,452.18 L269.78,466.94 L270.48,476.35 L264.83,487.12 L264.77,506.4 L257.87,506.94 L251.8,515.6 L255.86,519.33 L243.71,522.55 L239.22,530.26 L233.87,533.53 L221.24,522.93 L215.07,507.05 L209.95,495.61 L205.28,490.24 L198.2,479.35 L194.89,465.16 L192.58,458.07 L180.46,442.49 L174.93,420.51 L170.95,406 L170.99,392.26 L168.41,381.63 L149,388.42 L139.61,387.06 L122.19,373.32 L128.6,369.22 L124.66,364.76 L109.02,355.14 L117.9,347.57 L147.24,347.6 L144.6,337.86 L137.1,332.11 L135.59,323.38 L126.86,318.28 L141.55,306.39 L157.04,307.25 L170.98,295.36 L179.34,283.85 L192.29,272.47 L192.08,264.38 L203.45,257.82 L192.69,252.22 L188.06,244.54 L183.33,234.61 L189.87,229.71 L210.09,232.48 L224.96,230.8 L237.83,221.26 L252.16,234.56 L250.81,243.81 L256.12,249.62 L255.68,255.41 L246.11,253.88 L249.85,266.39 L262.95,273.57 L281.48,281.5 L273.02,286.65 L267.85,297.26 L280.76,301.55 L293.33,307.11 L310.72,313.48 L329,314.95 L336.69,320.72 L346.99,321.8 L363.03,324.44 L374.14,324.25 L375.66,319.76 L373.91,312.55 L374.94,307.67 L383.07,305.28 L384.19,314.22 L384.48,316.49 L396.59,320.79 L404.98,319.02 L416.23,319.78 L427.11,319.45 L428.05,312.48 L422.62,308.86 L433.37,307.44 L445.51,299 L460.88,291.78 L472.06,294.57 L481.57,289.79 L487.82,296.84 L483.32,301.61 L497.69,303.3 Z" fill="#f0e4d1" stroke="#c7baa4" stroke-width="1.15" vector-effect="non-scaling-stroke"/>
<path d="M435.64,373.86 L435.36,382 L430.71,380.28 L431.58,389.4 L427.77,383.49 L427,377.71 L424.47,372.25 L418.89,365.65 L406.61,365.2 L407.83,369.87 L403.64,376.18 L397.97,373.88 L396.03,375.95 L392.25,374.71 L387.09,373.7 L385.02,364.36 L380.4,355.83 L382.67,348.99 L374.46,345.95 L377.42,341.82 L385.75,337.59 L376.13,331.59 L380.84,323.89 L391.4,328.79 L397.77,329.35 L398.94,337.24 L411.63,338.79 L423.99,338.63 L431.68,340.56 L425.53,350.16 L419.57,350.82 L415.45,357.27 L422.75,363.15 L424.93,355.9 L428.61,355.87 L435.64,373.86 Z" fill="#f6eedf" stroke="#c7baa4" stroke-width="1.15" vector-effect="non-scaling-stroke"/>
<path d="M422.62,308.86 L428.05,312.48 L427.11,319.45 L416.23,319.78 L404.98,319.02 L396.59,320.79 L384.48,316.49 L384.19,314.22 L393.01,305.78 L400.21,302.91 L409.74,305.53 L416.78,305.81 L422.62,308.86 Z" fill="#f0e4d1" stroke="#c7baa4" stroke-width="1.15" vector-effect="non-scaling-stroke"/>
<path d="M374.94,307.67 L373.91,312.55 L375.66,319.76 L374.14,324.25 L363.03,324.44 L346.99,321.8 L336.69,320.72 L329,314.95 L310.72,313.48 L293.33,307.11 L280.76,301.55 L267.85,297.26 L273.02,286.65 L281.48,281.5 L287.01,278.79 L297.7,282.27 L311.16,289.67 L318.65,291.29 L323.13,296.74 L333.49,298.98 L344.31,303.96 L359.39,306.56 L374.94,307.67 Z" fill="#f0e4d1" stroke="#c7baa4" stroke-width="1.15" vector-effect="non-scaling-stroke"/>
<path d="M237.83,221.26 L224.96,230.8 L210.09,232.48 L189.87,229.71 L183.33,234.61 L188.06,244.54 L192.69,252.22 L203.45,257.82 L192.08,264.38 L192.29,272.47 L179.34,283.85 L170.98,295.36 L157.04,307.25 L141.55,306.39 L126.86,318.28 L135.59,323.38 L137.1,332.11 L144.6,337.86 L147.24,347.6 L117.9,347.57 L109.02,355.14 L99.25,352.27 L95.27,344.11 L84.97,335.48 L60.41,337.61 L38.74,337.82 L19.96,339.41 L24.99,326.23 L44.22,320.37 L43.12,315.15 L36.74,313.31 L36.37,303.32 L23.62,298.34 L18.26,291.49 L11.66,285.52 L34,291.31 L47.34,289.61 L55.31,291.06 L58.01,288.57 L67.29,289.57 L84.62,284.85 L85.09,275.2 L92.52,268.78 L102.45,268.8 L103.9,265.63 L114.09,264.15 L119.02,265.2 L124.24,262.01 L123.5,255.2 L129.16,248.36 L137.65,245.49 L132.41,237.98 L145.09,238.34 L148.76,234.25 L148.2,229.89 L154.84,225.13 L153.32,219.49 L150.16,214.68 L157.95,209.74 L172.27,207.36 L187.57,206.04 L194.35,203.94 L202.11,202.67 L211.96,207.96 L215.9,216.67 L237.83,221.26 Z" fill="#f6eedf" stroke="#c7baa4" stroke-width="1.15" vector-effect="non-scaling-stroke"/>
<path d="M86.91,200.06 L94.34,200.14 L104.4,202.53 L108.47,203.92 L118.13,200.27 L122.62,202.46 L126.92,197.27 L134.89,197.51 L136.94,195.84 L138.35,191.27 L144.09,187.32 L151.31,189.9 L149.86,193.37 L153.89,193.9 L152.65,203.43 L157.93,207.15 L162.57,204.77 L168.49,203.64 L176.8,198.56 L185.98,199.4 L199.73,199.42 L202.11,202.67 L194.35,203.94 L187.57,206.04 L172.27,207.36 L157.95,209.74 L150.16,214.68 L153.32,219.49 L154.84,225.13 L148.2,229.89 L148.76,234.25 L145.09,238.34 L132.41,237.98 L137.65,245.49 L129.16,248.36 L123.5,255.2 L124.24,262.01 L119.02,265.2 L114.09,264.15 L103.9,265.63 L102.45,268.8 L92.52,268.78 L85.09,275.2 L84.62,284.85 L67.29,289.57 L58.01,288.57 L55.31,291.06 L47.34,289.61 L34,291.31 L11.66,285.52 L23.75,275.24 L22.66,267.93 L12.56,266.02 L11.52,258.82 L7.15,249.76 L12.85,243.55 L7.05,241.88 L10.71,233.63 L16.14,219.49 L29.74,223.8 L39.8,222.28 L42.58,217.14 L53.11,215.43 L60.62,211.98 L63.28,202.91 L74.52,200.72 L76.61,196.68 L82.9,199.71 L86.91,200.06 Z" fill="#f0e4d1" stroke="#c7baa4" stroke-width="1.15" vector-effect="non-scaling-stroke"/>
<path d="M104.4,202.53 L111.89,191.05 L109.01,182.61 L99.23,179.9 L102.69,174.91 L113.82,175.44 L120.16,169.17 L124.39,161.89 L142.22,159.26 L139.44,164.52 L141.35,167.67 L146.86,167.38 L141.97,170.88 L127.46,168.98 L126.2,175.52 L140.66,174.64 L157.13,178.32 L182.34,176.6 L185.72,187.1 L190.1,185.96 L198.2,188.54 L197.73,192.95 L199.73,199.42 L185.98,199.4 L176.8,198.56 L168.49,203.64 L162.57,204.77 L157.93,207.15 L152.65,203.43 L153.89,193.9 L149.86,193.37 L151.31,189.9 L144.09,187.32 L138.35,191.27 L136.94,195.84 L134.89,197.51 L126.92,197.27 L122.62,202.46 L118.13,200.27 L108.47,203.92 L104.4,202.53 Z" fill="#f0e4d1" stroke="#c7baa4" stroke-width="1.15" vector-effect="non-scaling-stroke"/>
<path d="M146.16,144.44 L149.15,139.47 L157.93,137.87 L179.86,141.78 L181.94,135.08 L189.5,132.74 L208.49,137.5 L213.34,136.26 L235.45,136.57 L255.23,137.75 L261.92,141.83 L270.13,143.49 L268.26,146.06 L247.25,152.2 L242.5,156.7 L225.39,158.05 L220.35,165.29 L206.24,163.77 L197.02,165.99 L184.3,171.35 L186.13,174.01 L182.34,176.6 L157.13,178.32 L140.66,174.64 L126.2,175.52 L127.46,168.98 L141.97,170.88 L146.86,167.38 L157,168.49 L174.07,160.33 L158.27,154.35 L148.77,157.18 L138.93,152.91 L150.12,145.56 L146.16,144.44 Z" fill="#f6eedf" stroke="#c7baa4" stroke-width="1.15" vector-effect="non-scaling-stroke"/>
<path d="M-99.97,149.92 L-94.08,146.15 L-78.94,143.79 L-69.93,146.96 L-60.6,155.86 L-53.76,155.3 L-38.71,155.15 L-40.9,149.44 L-29.51,145.53 L-18.28,138.94 L-0.31,144.93 L1.11,153.98 L6.21,156.31 L20.63,155.78 L25.1,157.84 L31.66,169.54 L46.91,177.37 L55.6,182.71 L69.55,188.27 L87.28,193.12 L86.91,200.06 L82.9,199.71 L76.61,196.68 L74.52,200.72 L63.28,202.91 L60.62,211.98 L53.11,215.43 L42.58,217.14 L39.8,222.28 L29.74,223.8 L16.14,219.49 L14.97,209.95 L5.04,209.54 L-10.2,199.49 L-20.85,198.25 L-35.59,192.5 L-45.08,191.46 L-50.93,193.57 L-59.85,193.24 L-69.33,199.73 L-81.05,201.92 L-83.53,193.9 L-81.59,182.04 L-91.99,178.2 L-88.56,170.43 L-97.41,169.77 L-94.46,160.21 L-81.89,162.99 L-70.18,159.36 L-79.89,152.55 L-83.71,146.07 L-94.44,148.96 L-95.8,157.27 L-99.97,149.92 Z" fill="#f0e4d1" stroke="#c7baa4" stroke-width="1.15" vector-effect="non-scaling-stroke"/>
<path d="M-152.43,284.41 L-159.81,278.45 L-159.94,272.41 L-164.2,272.41 L-162.01,264.19 L-168.87,255.57 L-185.21,249.36 L-194.44,238.57 L-191.35,229.72 L-184.64,225.81 L-185.65,219.18 L-194.39,215.78 L-203.03,202.25 L-203.03,202.25 L-210.32,193.16 L-207.71,189.65 L-211.88,176.64 L-202.75,173.4 L-200.63,177.68 L-193.9,182.92 L-184.75,184.43 L-179.92,184.09 L-164.2,175.73 L-159.2,174.89 L-155.26,178.22 L-159.86,183.83 L-151.54,189.77 L-148.22,189.2 L-144.01,197.57 L-131.36,199.93 L-122.1,205.62 L-103.15,207.58 L-82.32,204.58 L-81.05,201.92 L-69.33,199.73 L-59.85,193.24 L-50.93,193.57 L-45.08,191.46 L-35.59,192.5 L-20.85,198.25 L-10.2,199.49 L5.04,209.54 L14.97,209.95 L16.14,219.49 L10.71,233.63 L7.05,241.88 L12.85,243.55 L7.15,249.76 L11.52,258.82 L12.56,266.02 L22.66,267.93 L23.75,275.24 L11.66,285.52 L18.26,291.49 L23.62,298.34 L36.37,303.32 L36.74,313.31 L43.12,315.15 L44.22,320.37 L24.99,326.23 L19.96,339.41 L-5.12,335.99 L-19.66,333.38 L-34.7,331.91 L-40.39,318 L-46.77,315.99 L-57.02,318.01 L-70.47,323.5 L-86.76,319.74 L-100.22,311.02 L-113.06,307.79 L-121.96,297.03 L-131.8,281.91 L-138.98,283.74 L-147.45,279.99 L-152.43,284.41 Z" fill="#f0e4d1" stroke="#c7baa4" stroke-width="1.15" vector-effect="non-scaling-stroke"/>
<path d="M1169.19,1086.78 L1177.19,1087.54 L1178.13,1101.01 L1173.56,1104.92 L1172.19,1114.04 L1167.53,1110.93 L1158.27,1118.84 L1155.51,1118.23 L1147.31,1117.88 L1139.09,1108.17 L1137.27,1100.68 L1129.57,1090.8 L1129.92,1085.6 L1138.64,1086.6 L1151.52,1090.52 L1158.78,1088.96 L1169.19,1086.78 Z M881.98,989.32 L867.85,995.13 L856.29,997.75 L853.72,1003.7 L848.8,1008.31 L837.48,1008.58 L829.11,1009.59 L817.32,1007.52 L807.74,1008.76 L798.58,1009.28 L790.65,1015.33 L786.76,1014.82 L780.08,1018.02 L773.67,1021.63 L763.94,1021.18 L755,1021.18 L740.86,1013.94 L733.69,1011.78 L733.98,1005.28 L740.6,1003.74 L742.86,1001.15 L742.39,997.08 L744.02,989.19 L742.53,982.47 L735.48,971 L733.29,964.53 L733.87,958.07 L728.56,950.68 L728.22,947.35 L722.31,942.83 L720.65,933.95 L713.03,924.97 L711.19,920.13 L717.04,925.03 L712.55,914.51 L719.16,917.8 L723.1,922.19 L722.88,916.38 L716.28,907.45 L715,903.88 L711.91,900.48 L713.36,893.92 L716.09,891.13 L717.91,885.46 L716.49,878.83 L722,870.66 L723,879.3 L728.64,871.5 L739.47,867.71 L745.96,862.87 L756.15,858.71 L762.22,857.82 L765.89,859.22 L776.39,854.99 L784.48,853.73 L786.5,851.25 L790.03,850.21 L797.4,850.48 L811.42,847.16 L818.66,842.12 L822.07,836.06 L829.89,830.3 L830.49,825.78 L830.84,819.61 L840.17,809.97 L845.78,819.76 L851.46,817.5 L846.71,812.14 L850.89,806.64 L856.78,809.09 L858.4,800.46 L865.68,794.88 L868.9,790.4 L875.6,788.47 L875.81,785.3 L881.67,786.63 L881.9,783.78 L887.77,782.15 L894.21,780.62 L904.06,785.83 L911.46,792.55 L919.81,792.62 L928.29,793.69 L925.46,787.46 L931.85,778.36 L937.86,775.4 L935.78,772.56 L941.57,766.08 L949.65,762.08 L956.47,763.43 L967.67,761.29 L967.43,755.5 L957.66,751.76 L964.76,750.11 L973.59,752.93 L980.68,757.58 L991.91,760.48 L995.72,759.33 L1003.98,762.82 L1011.77,759.57 L1016.78,760.56 L1019.9,758.38 L1026.02,763.99 L1022.47,770.06 L1017.41,774.65 L1012.82,775.02 L1014.37,779.56 L1010.45,785.23 L1005.72,790.8 L1006.67,794 L1017.27,800.27 L1027.54,803.91 L1034.41,807.81 L1044.04,814.53 L1047.8,814.52 L1054.78,817.43 L1056.81,820.93 L1069.54,824.78 L1078.34,820.9 L1080.95,814.81 L1083.65,809.78 L1085.31,803.56 L1089.36,794.54 L1087.51,789.05 L1088.47,785.75 L1086.93,779.26 L1088.68,770.72 L1091.24,768.41 L1089.16,764.62 L1092.38,758.61 L1094.91,752.38 L1095.25,749.14 L1100.2,744.89 L1103.96,750.44 L1104.89,757.56 L1108.21,758.93 L1108.78,763.69 L1113.63,769.46 L1114.63,775.89 L1114.16,780.01 L1118.96,788.91 L1127.52,784.63 L1131.93,789.43 L1138.33,793.86 L1136.96,798.89 L1139.8,808.61 L1141.83,814.28 L1145.19,815.66 L1148.8,825.36 L1147.52,831.24 L1151.83,838.93 L1166.28,844.86 L1175.7,850.25 L1184.65,855.18 L1182.9,857.93 L1190.53,865.04 L1195.71,877.32 L1201.03,874.83 L1206.44,879.74 L1209.7,878 L1211.99,890.02 L1221.46,896.98 L1227.65,901.31 L1238.07,910.5 L1241.82,919.61 L1242.16,926.08 L1241.24,933.1 L1247.59,942.74 L1246.83,952.78 L1244.52,958.03 L1240.92,968.15 L1241.19,974.66 L1238.55,982.79 L1232.67,993.1 L1222.79,998.68 L1217.92,1007.47 L1213.47,1013.07 L1209.52,1022.86 L1204.38,1028.52 L1201,1037.01 L1199.28,1044.82 L1199.96,1048.41 L1192.32,1052.35 L1177.39,1052.76 L1165.09,1057.41 L1158.96,1061.81 L1150.91,1066.67 L1139.86,1061.66 L1131.69,1059.66 L1133.76,1053.75 L1126.48,1055.89 L1114.8,1064.11 L1103.27,1061.03 L1095.71,1059.24 L1088.09,1058.42 L1075.18,1055.14 L1066.56,1048.15 L1064.09,1039.54 L1060.99,1033.81 L1054.44,1029.21 L1041.61,1027.84 L1045.99,1022.34 L1042.77,1013.92 L1036.26,1021.77 L1024.39,1023.85 L1031.36,1017.58 L1033.39,1011.03 L1038.53,1005.47 L1037.47,997.07 L1026.62,1006.75 L1018.29,1010.63 L1013.19,1019.65 L1002.78,1014.98 L1003.19,1008.96 L994.85,1000.74 L987.81,996.49 L990.32,993.87 L973.21,986.99 L963.84,986.67 L951.02,981.15 L927.14,982.22 L909.88,986.28 L894.7,990.07 L881.98,989.32 Z" fill="#f6eedf" stroke="#c7baa4" stroke-width="1.15" vector-effect="non-scaling-stroke"/>
<path d="M290.51,538.54 L288.5,550.36 L282.91,553.58 L271.31,556.18 L264.97,547.16 L262.6,530.86 L268.64,512.44 L277.85,518.75 L284.06,526.73 L290.51,538.54 Z" fill="#f0e4d1" stroke="#c7baa4" stroke-width="1.15" vector-effect="non-scaling-stroke"/>
<path d="M659.67,417.46 L648.74,413.94 L648.35,404.19 L654.92,399.04 L669.49,395.87 L677.15,396.14 L680.13,400.46 L674.28,405.46 L671.19,412.01 L659.67,417.46 Z M270.13,143.49 L269.07,137.03 L278.22,134.07 L266.21,114.37 L292.63,109.84 L299.45,107.31 L309.07,87 L335.52,90.74 L342.94,85.61 L343.58,74.23 L354.65,73.17 L364.8,65.62 L370.02,64.69 L373.52,72.6 L384.72,78.62 L403.74,82.88 L412.94,92.02 L407.81,105.27 L412.61,110.19 L428.45,112.13 L446.41,113.71 L462.52,120.78 L470.76,122.04 L476.83,132.5 L484.66,139.23 L499.36,138.97 L526.88,141.51 L544.61,139.93 L557.77,141.62 L577.5,148.51 L593.63,148.5 L599.53,152.03 L615.06,145.94 L636.6,142 L656.58,141.57 L672.16,137.58 L681.73,131.5 L691.06,127.69 L688.9,123.95 L684.65,119.59 L691.64,112.27 L699.15,113.3 L712.85,115.6 L726.14,109.58 L746.47,105.18 L756.24,97.69 L765.62,94.46 L784.99,92.95 L795.51,94.23 L796.97,90.2 L784.89,82.27 L774.19,78.65 L763.94,82.83 L750.79,81.07 L743.24,82.5 L739.8,77.87 L749.22,66.53 L755.72,57.98 L771.72,62.26 L790.51,55.1 L790.39,50.1 L802.43,38.07 L809.84,34.44 L809.68,28.17 L802.36,25.48 L813.37,19.83 L829.94,17.79 L847.62,17.48 L867.58,20.86 L879.28,25.04 L887.53,36.48 L892.52,41.36 L897.17,48.32 L902.1,59.44 L925.3,63.06 L941.1,71.13 L946.5,81.78 L966.76,81.8 L978.31,77.32 L1000.35,73.98 L993.34,84.18 L988.16,88.34 L983.6,100.76 L974.63,111.8 L958.45,109.79 L947,113.8 L950.51,123.51 L948.6,136.91 L941.78,137.22 L941.87,142.98 L933.26,136.29 L927.96,142.64 L907.36,147.53 L909.45,153.51 L897.92,153.1 L891.59,149.54 L882.43,157.59 L867.73,163.69 L856.88,170.96 L838.23,174.26 L828.42,179.56 L814.06,182.66 L821.15,177.4 L818.36,172.98 L828.91,165.36 L821.87,159.41 L810.25,163.42 L795.19,171.31 L786.98,178.63 L773.9,179.18 L767.1,184.47 L774.13,192.14 L785.04,194 L785.49,199.09 L796.04,202.41 L810.98,194.31 L822.82,198.72 L831.44,199.02 L833.6,204.97 L814.72,208.13 L808.49,214.26 L795.53,219.95 L788.68,227.89 L803.03,234.12 L808.27,245.28 L816.39,255.67 L825.44,264.39 L825.23,272.81 L816.86,275.91 L820.05,281.96 L827.89,285.48 L825.85,294.72 L822.46,303.71 L815.01,304.73 L805.27,317.01 L794.47,331.9 L782.09,345.43 L763.75,355.9 L745.21,365.45 L730.18,366.75 L722.03,371.79 L717.42,368.11 L709.88,373.75 L691.25,379.43 L677.14,381.17 L672.59,393.15 L665.2,393.81 L661.7,385.58 L664.86,381.19 L646.97,377.56 L640.67,379.41 L627.25,376.46 L620.9,371.85 L623.01,365.32 L610.82,363.25 L604.39,358.99 L593.02,365.04 L580.06,366.35 L569.43,366.29 L562.27,369.06 L555.36,370.72 L557.37,383.69 L550.27,383.38 L549.07,380.72 L548.67,376.03 L538.89,379.33 L533.11,377.24 L523.21,372.99 L527.09,363.56 L518.65,361.37 L515.47,350.92 L501.4,352.81 L502.99,339.35 L515.62,329.88 L516.16,320.52 L515.77,311.84 L509.95,309.14 L505.49,302.46 L497.69,303.3 L483.32,301.61 L487.82,296.84 L481.57,289.79 L472.06,294.57 L460.88,291.78 L445.51,299 L433.37,307.44 L422.62,308.86 L416.78,305.81 L409.74,305.53 L400.21,302.91 L393.01,305.78 L384.19,314.22 L383.07,305.28 L374.94,307.67 L359.39,306.56 L344.31,303.96 L333.49,298.98 L323.13,296.74 L318.65,291.29 L311.16,289.67 L297.7,282.27 L287.01,278.79 L281.48,281.5 L262.95,273.57 L249.85,266.39 L246.11,253.88 L255.68,255.41 L256.12,249.62 L250.81,243.81 L252.16,234.56 L237.83,221.26 L215.9,216.67 L211.96,207.96 L202.11,202.67 L199.73,199.42 L197.73,192.95 L198.2,188.54 L190.1,185.96 L185.72,187.1 L182.34,176.6 L186.13,174.01 L184.3,171.35 L197.02,165.99 L206.24,163.77 L220.35,165.29 L225.39,158.05 L242.5,156.7 L247.25,152.2 L268.26,146.06 L270.13,143.49 Z" fill="#f0e4d1" stroke="#c7baa4" stroke-width="1.15" vector-effect="non-scaling-stroke"/>
<path d="M823.7,347.17 L815.68,365.36 L809.96,374.66 L802.93,365.09 L801.42,356.68 L809.26,345.53 L819.93,336.95 L826.02,340.33 L823.7,347.17 Z" fill="#f6eedf" stroke="#c7baa4" stroke-width="1.15" vector-effect="non-scaling-stroke"/>
<path d="M811.12,479.77 L804.31,471.13 L815.74,471.54 L820.37,475.63 L816.83,485.43 L811.12,479.77 Z M834.48,510.66 L837.83,507.49 L839.3,500.44 L846.65,499.78 L844.5,507.41 L854.37,496.46 L853.1,507.29 L848.31,511.01 L844.13,518.18 L839.95,521.54 L831.73,513.7 L834.48,510.66 Z M885.02,528.43 L886.38,535.97 L887.17,542.33 L882.62,552.71 L877.75,541.15 L871.52,546.9 L875.78,555.26 L871.95,560.57 L856.26,553.99 L852.52,545.78 L856.58,540.39 L848.14,535.02 L843.95,539.73 L837.67,539.29 L827.81,545.62 L825.6,542.3 L830.83,532.74 L839.23,529.55 L846.5,525.27 L851.22,530.41 L861.35,527.3 L863.53,522.24 L872.95,521.94 L872.16,513.17 L882.97,518.55 L884.09,524.26 L885.02,528.43 Z M780.06,518.2 L762.32,528.97 L768.86,521.03 L778.49,514.03 L786.5,506.18 L793.49,494.91 L795.86,504.16 L787.06,510.41 L780.06,518.2 Z M831.16,417.15 L828.99,421.85 L833.54,429.98 L830.03,439.41 L822.17,443.17 L820.07,452.32 L823.05,461.35 L830.12,462.6 L836.02,461.26 L852.67,467.55 L851.4,473.72 L855.75,476.45 L854.37,481.67 L843.97,476.11 L839.05,470.15 L835.62,474.31 L827.13,467.52 L815.02,469.2 L808.38,466.69 L809.06,462 L813.22,459.11 L809.24,456.49 L807.52,460.58 L800.94,454.06 L798.95,449.12 L798.45,438.26 L803.82,442 L805.2,424.25 L809.54,413.97 L817.62,413.98 L825.83,417.22 L829.95,414.27 L831.16,417.15 Z M827.18,494.39 L825.11,488.99 L833.12,492.5 L841.6,492.48 L841.34,497.22 L835.17,502.04 L826.7,505.45 L826.23,500.17 L827.18,494.39 Z M873.37,485.92 L877.11,498.58 L866.83,495.57 L867.1,499.38 L870.37,506.38 L864.02,508.92 L863.47,500.94 L859.45,500.35 L857.37,493.49 L865.21,494.39 L865.04,490.1 L856.89,481.43 L869.69,481.68 L873.37,485.92 Z" fill="#f0e4d1" stroke="#c7baa4" stroke-width="1.15" vector-effect="non-scaling-stroke"/>
<path d="M534.48,550.55 L536.79,548.53 L547.67,553.5 L548.72,559.32 L557.52,557.97 L561.88,553.31 L564.95,554.37 L572.82,561.21 L578.42,568.81 L579.18,576.45 L577.76,581.61 L579.06,585.51 L580.03,592.22 L584.73,595.35 L589.97,605.38 L589.72,609.21 L580.26,609.97 L567.65,601.57 L551.88,592.56 L550.31,586.78 L542.61,579.2 L540.77,569.8 L535.96,563.62 L537.42,555.36 L534.48,550.55 Z M771.76,576.95 L760.2,575.04 L744.87,575.03 L740.25,587.93 L735.12,591.88 L728.28,607.65 L717.41,610.07 L704.8,606.89 L698.4,607.89 L690.63,613.62 L682.12,612.8 L673.52,615.11 L664.4,608.7 L662.18,601.12 L671.95,605.01 L682.25,602.89 L684.93,593.28 L690.63,591.15 L706.61,588.69 L716.17,579.72 L722.72,572.54 L728.79,578.42 L731.59,574.56 L737.97,574.92 L738.74,567.67 L739.34,562.09 L749.61,554.2 L756.33,545.33 L761.73,545.29 L768.58,551.03 L769.19,555.96 L777.97,559.13 L789.09,562.54 L788.14,566.98 L779.2,567.54 L781.58,573.08 L771.76,576.95 Z" fill="#f0e4d1" stroke="#c7baa4" stroke-width="1.15" vector-effect="non-scaling-stroke"/>
<path d="M739.34,562.09 L738.74,567.67 L737.97,574.92 L731.59,574.56 L728.79,578.42 L722.72,572.54 L728,568.3 L739.34,562.09 Z" fill="#f6eedf" stroke="#c7baa4" stroke-width="1.15" vector-effect="non-scaling-stroke"/>
<path d="M1091.79,179.44 L1079.46,190.86 L1079.69,202.57 L1074.66,211.62 L1076.99,217.3 L1070.04,225.3 L1053.01,230.64 L1029.57,231.33 L1010.57,244.28 L1001.61,239.92 L1001.06,231.44 L977.87,233.94 L962.09,239.29 L946.48,239.5 L960,247.85 L951.1,267.13 L942.48,271.9 L936.03,267.49 L939.3,257.27 L930.86,253.97 L925.45,246.19 L938.05,242.7 L945.05,235.57 L958.46,229.7 L968.24,221.95 L994.78,218.57 L1009.03,220.89 L1022.98,200.72 L1031.87,206.14 L1051.43,194.79 L1059.02,190.39 L1067.4,176.52 L1065.11,163.76 L1070.74,156.59 L1084.92,154.51 L1092.19,170.24 L1091.79,179.44 Z M1128.18,125.22 L1137.61,120.41 L1140.58,133.15 L1120.8,136.25 L1109.12,147.52 L1088.15,139.76 L1080.9,152.17 L1066.07,152.35 L1064.23,141.07 L1070.83,132.34 L1085.07,131.71 L1088.96,116.02 L1092.9,107.18 L1108.57,118.99 L1118.8,122.8 L1128.18,125.22 Z M964.95,244.29 L972.32,237.52 L979.91,238.84 L985.39,234.07 L995.18,236.52 L996.89,240.41 L989.38,247.27 L983.91,243.63 L977.07,246.27 L973.53,252.9 L964.84,249.67 L964.95,244.29 Z" fill="#f0e4d1" stroke="#c7baa4" stroke-width="1.15" vector-effect="non-scaling-stroke"/>
    <text x="580" y="95.28" text-anchor="middle" font-family="Inter, Arial, sans-serif" font-size="17" font-weight="700" fill="#1d2745" opacity="0.72">Mongolia</text>
<text x="584" y="235.94" text-anchor="middle" font-family="Inter, Arial, sans-serif" font-size="21" font-weight="700" fill="#1d2745" opacity="0.72">China</text>
<text x="260" y="365.25" text-anchor="middle" font-family="Inter, Arial, sans-serif" font-size="19" font-weight="700" fill="#1d2745" opacity="0.72">India</text>
<text x="546.67" y="451.46" text-anchor="middle" font-family="Inter, Arial, sans-serif" font-size="14" font-weight="700" fill="#1d2745" opacity="0.72">Thailand</text>
<text x="620" y="440.12" text-anchor="middle" font-family="Inter, Arial, sans-serif" font-size="14" font-weight="700" fill="#1d2745" opacity="0.72">Vietnam</text>
<text x="846.67" y="480.96" text-anchor="middle" font-family="Inter, Arial, sans-serif" font-size="13" font-weight="700" fill="#1d2745" opacity="0.72">Philippines</text>
<text x="726.67" y="662.45" text-anchor="middle" font-family="Inter, Arial, sans-serif" font-size="14" font-weight="700" fill="#1d2745" opacity="0.72">Indonesia</text>
<text x="1048" y="196.24" text-anchor="middle" font-family="Inter, Arial, sans-serif" font-size="15" font-weight="700" fill="#1d2745" opacity="0.72">Japan</text>
    
    <path d="M903.56,216.57 L974,186" fill="none" stroke="#cf5639" stroke-width="2" stroke-dasharray="5 7" stroke-linecap="round"/>
    <circle cx="903.56" cy="216.57" r="7" fill="#cf5639" stroke="#fffaf2" stroke-width="4"/>
    <g transform="translate(974,186)">
      <rect x="-76" y="-20" width="152" height="40" rx="20" fill="#fffaf2" stroke="#eadfcc"/>
      <text x="0" y="6" text-anchor="middle" font-family="Inter, Arial, sans-serif" font-size="14" font-weight="800" fill="#1d2745">South Korea</text>
    </g>
    <text x="72" y="96" font-family="Cormorant Garamond, Georgia, serif" font-size="48" fill="#1d2745">Asia to Korea</text>
    <text x="74" y="132" font-family="Inter, Arial, sans-serif" font-size="15" fill="#6d756f">A calm travel map, with hondit's origin marked only in Korea.</text>
  </g>
</svg>
